<?xml version="1.0" standalone="no"?>
<!DOCTYPE svg PUBLIC "-//W3C//DTD SVG 20010904//EN"
 "http://www.w3.org/TR/2001/REC-SVG-20010904/DTD/svg10.dtd">
<svg version="1.0" xmlns="http://www.w3.org/2000/svg"
 width="512.000000pt" height="512.000000pt" viewBox="0 0 512.000000 512.000000"
 preserveAspectRatio="xMidYMid meet">
<metadata>
Created by potrace 1.14, written by Peter Selinger 2001-2017
</metadata>
<g transform="translate(0.000000,512.000000) scale(0.100000,-0.100000)"
fill="#000000" stroke="none">
<path d="M273 3550 c-18 -10 -40 -31 -50 -47 -17 -26 -18 -77 -18 -943 0 -883
1 -916 19 -947 11 -17 36 -41 56 -52 37 -21 49 -21 519 -21 508 0 528 2 545
45 3 9 6 58 6 109 0 79 -3 97 -21 120 l-20 26 -395 0 -394 0 0 310 0 309 301
3 301 3 19 24 c16 19 19 40 19 126 0 154 21 145 -346 145 l-294 0 0 255 0 255
380 0 c479 0 450 -10 450 154 0 79 -3 97 -21 120 l-20 26 -502 0 c-480 0 -503
-1 -534 -20z"/>
<path d="M1731 3544 c-65 -54 -61 6 -61 -984 0 -990 -3 -945 61 -991 34 -24
36 -24 335 -27 364 -3 438 7 594 84 81 40 109 61 190 143 108 108 158 187 196
306 39 123 46 220 42 544 -6 342 -14 389 -94 541 -95 180 -247 308 -454 381
-62 22 -80 23 -421 27 l-356 3 -32 -27z m771 -316 c131 -62 211 -157 252 -297
23 -79 23 -658 0 -746 -44 -173 -200 -310 -379 -335 -38 -5 -141 -10 -227 -10
l-158 0 0 716 0 716 218 -4 217 -3 77 -37z"/>
<path d="M3461 3551 c-11 -11 -23 -35 -26 -53 -3 -18 -5 -455 -3 -971 l3 -939
28 -24 c25 -22 37 -24 123 -24 99 0 146 13 158 45 3 9 6 210 6 446 l0 429 430
0 430 0 0 -439 0 -440 26 -20 c23 -18 41 -21 121 -21 98 0 145 14 157 45 3 9
6 448 6 974 0 954 0 958 -21 985 -20 25 -23 26 -135 26 -169 0 -154 41 -154
-425 l0 -385 -430 0 -430 0 0 379 c0 468 13 431 -156 431 -100 0 -116 -2 -133
-19z"/>
</g>
</svg>
