<?xml version="1.0" standalone="no"?>
<!DOCTYPE svg PUBLIC "-//W3C//DTD SVG 20010904//EN"
 "http://www.w3.org/TR/2001/REC-SVG-20010904/DTD/svg10.dtd">
<svg version="1.0" xmlns="http://www.w3.org/2000/svg"
 width="512.000000pt" height="512.000000pt" viewBox="0 0 512.000000 512.000000"
 preserveAspectRatio="xMidYMid meet">
<metadata>
Created by potrace 1.14, written by Peter Selinger 2001-2017
</metadata>
<g transform="translate(0.000000,512.000000) scale(0.100000,-0.100000)"
fill="#000000" stroke="none">
<path d="M1408 4695 c-2 -1 -30 -5 -63 -9 -34 -3 -92 -15 -130 -27 -39 -11
-76 -21 -82 -21 -7 -1 -13 -5 -13 -10 0 -4 -5 -8 -11 -8 -6 0 -35 -25 -66 -55
-31 -30 -53 -55 -50 -55 3 0 -4 -11 -16 -24 -34 -37 -47 -54 -47 -62 0 -12
-81 -115 -121 -154 -70 -68 -176 -109 -269 -103 -42 3 -139 3 -325 2 -44 -1
-86 -6 -92 -11 -7 -6 -13 -8 -13 -4 0 18 -53 -31 -65 -60 -29 -69 10 -190 83
-261 32 -31 38 -42 31 -60 -5 -13 -4 -25 1 -28 7 -4 6 -13 0 -26 -6 -10 -7
-19 -3 -19 5 0 9 -12 9 -27 2 -40 10 -85 19 -105 4 -9 4 -21 1 -27 -4 -5 -2
-12 4 -16 6 -4 8 -11 5 -16 -4 -5 -1 -9 4 -9 6 0 11 -6 11 -14 0 -8 10 -32 22
-53 55 -98 178 -175 296 -185 6 -1 12 -4 12 -8 0 -3 57 -5 128 -3 150 4 152 4
152 15 0 5 4 7 9 4 5 -3 25 1 45 9 20 8 36 12 36 8 0 -4 5 -2 11 4 7 7 20 8
33 4 11 -5 29 -7 39 -6 9 2 17 -1 17 -6 0 -4 6 -6 14 -3 29 11 128 -63 168
-126 21 -35 64 -156 74 -210 4 -25 8 -47 9 -50 6 -23 22 -119 30 -190 3 -19 8
-57 11 -85 4 -27 8 -63 10 -80 3 -32 21 -146 28 -180 2 -11 10 -42 16 -70 6
-27 14 -59 16 -71 2 -12 10 -39 18 -62 8 -22 12 -43 9 -46 -4 -3 -1 -6 5 -6 7
0 12 -11 12 -23 0 -13 3 -27 8 -31 4 -4 7 -11 7 -14 1 -4 11 -29 23 -56 19
-41 46 -122 51 -148 0 -5 1 -9 2 -10 1 -2 3 -16 5 -33 1 -16 6 -48 9 -70 4
-22 8 -53 10 -70 2 -16 4 -30 5 -30 1 0 4 -29 6 -65 2 -36 6 -94 9 -130 11
-143 4 -587 -9 -608 -3 -6 -2 -13 4 -17 6 -4 8 -11 4 -16 -3 -6 -7 -29 -9 -52
-2 -23 -7 -78 -11 -122 -5 -44 -8 -99 -8 -122 1 -24 -2 -43 -6 -43 -4 0 -7 -7
-6 -17 1 -11 -9 -17 -32 -20 -28 -4 -128 -42 -110 -43 3 0 -7 -14 -22 -30 -52
-56 -62 -182 -17 -212 6 -3 105 -6 221 -6 l210 1 27 29 c15 15 37 50 49 76 12
26 28 59 36 74 8 14 14 33 14 42 0 9 5 16 11 16 5 0 8 4 5 9 -3 4 3 32 14 61
11 29 17 57 14 61 -3 5 -1 9 4 9 5 0 9 6 9 13 0 6 4 26 7 42 4 17 8 39 9 50 1
11 5 22 9 25 3 3 8 20 11 38 3 19 8 36 11 40 3 3 0 12 -7 20 -7 10 -8 13 -1 9
7 -4 14 5 18 25 7 37 13 34 21 -11 3 -19 8 -37 10 -41 2 -3 6 -17 9 -31 5 -28
65 -269 71 -285 2 -7 -23 -21 -56 -34 -61 -22 -120 -66 -141 -104 -14 -26 -19
-134 -7 -142 5 -3 9 -14 9 -25 0 -20 6 -20 281 -18 277 2 281 2 295 24 34 52
37 263 8 511 -3 26 -7 60 -9 78 -11 107 -17 153 -22 171 -4 11 -7 27 -9 35
-10 83 -21 145 -24 145 -1 0 -3 14 -5 30 -2 17 -7 41 -11 55 -12 48 -17 75
-16 92 0 10 -3 18 -8 18 -5 0 -7 7 -4 15 3 8 2 20 -2 27 -5 7 -9 18 -10 23 -6
30 -14 64 -23 93 -5 17 -7 32 -4 32 3 0 0 7 -7 15 -7 9 -10 18 -6 22 3 4 64 8
134 9 143 3 216 9 231 19 6 3 11 1 11 -6 0 -8 3 -9 14 0 7 6 37 13 67 16 54 5
104 12 104 15 0 1 16 3 35 5 37 5 73 12 78 15 1 2 11 4 22 5 11 1 21 4 23 5 1
1 13 4 27 5 38 6 54 10 68 19 7 4 16 5 19 2 3 -3 12 -1 20 5 7 6 13 9 13 5 0
-3 12 -1 28 5 79 32 78 32 111 -27 66 -115 167 -248 273 -355 43 -44 56 -64
54 -83 -2 -14 0 -26 3 -26 4 0 7 -10 8 -22 1 -22 6 -48 20 -113 7 -30 9 -44
16 -100 2 -16 8 -46 12 -65 4 -19 9 -44 11 -55 5 -38 18 -112 29 -165 3 -14 7
-43 11 -65 11 -83 11 -88 -16 -92 -55 -8 -91 -26 -119 -60 -24 -30 -29 -43
-29 -94 0 -32 4 -59 9 -59 5 0 9 -7 9 -15 0 -8 9 -25 20 -38 20 -23 24 -24
216 -25 108 0 206 3 219 8 63 24 93 165 88 412 -4 196 -6 238 -13 238 -3 0 -5
21 -6 48 -1 42 -4 69 -19 167 -3 17 -7 44 -9 60 -3 17 -5 30 -6 30 -1 0 -4 20
-6 44 -6 47 -3 47 42 6 6 -5 26 -21 44 -35 18 -14 45 -43 60 -65 38 -56 180
-330 180 -348 0 -9 4 -17 9 -19 8 -3 79 -174 86 -208 2 -8 8 -27 13 -41 8 -21
7 -29 -9 -42 -10 -9 -19 -14 -19 -12 0 3 -13 -1 -30 -10 -16 -9 -30 -20 -30
-25 0 -5 -9 -12 -20 -15 -11 -3 -20 -15 -20 -25 0 -10 -4 -20 -9 -22 -12 -4
-22 -98 -11 -98 4 0 6 -8 4 -17 -3 -10 4 -31 13 -47 18 -29 19 -29 103 -26 47
1 159 3 249 4 197 2 200 4 195 108 -6 101 -20 187 -40 250 -3 11 -8 30 -9 41
-2 12 -8 39 -13 60 -6 20 -8 37 -5 37 3 0 0 7 -7 15 -6 8 -9 19 -5 25 3 5 2
10 -3 10 -8 0 -10 6 -14 50 -1 11 -6 20 -10 20 -4 0 -8 10 -8 23 0 13 -4 27
-9 33 -6 5 -12 20 -14 34 -2 14 -7 32 -10 40 -3 8 -20 58 -38 110 -39 118 -92
255 -131 340 -43 92 -53 127 -61 208 -2 17 -6 35 -9 38 -4 3 -3 18 2 33 4 16
4 34 0 42 -5 7 -7 25 -4 39 10 53 10 95 1 108 -5 6 -5 12 -1 12 5 0 10 17 10
38 1 36 10 158 19 252 3 25 7 92 10 150 3 58 7 117 9 133 2 15 -2 27 -8 27 -7
0 -7 3 -1 8 18 12 3 345 -16 368 -5 6 -6 13 -4 16 3 3 1 25 -5 49 -24 99 -25
96 17 109 21 7 42 16 48 21 5 5 16 9 25 9 8 0 28 11 44 25 16 14 33 25 38 25
11 0 23 10 98 83 33 31 58 57 54 57 -3 0 1 7 8 15 38 42 68 90 68 110 0 8 4
15 9 15 8 0 56 121 67 170 8 40 12 55 14 55 15 0 16 250 1 315 -27 114 -81
248 -103 258 -5 2 -8 9 -8 15 0 7 -25 39 -55 72 -30 33 -55 63 -55 68 0 4 -5
7 -10 7 -6 0 -23 11 -38 25 -31 29 -130 84 -187 103 -22 8 -43 19 -47 26 -6 8
-8 8 -8 0 0 -8 -15 -7 -50 2 -27 7 -59 11 -70 9 -11 -2 -20 1 -20 6 0 6 -6 7
-12 2 -7 -4 -30 -9 -51 -10 -106 -7 -241 -72 -333 -159 -37 -35 -97 -122 -97
-141 0 -7 -4 -13 -9 -13 -4 0 -7 -3 -7 -7 1 -5 0 -10 -1 -13 -6 -17 -21 -104
-24 -144 -1 -17 3 -57 10 -88 6 -32 10 -58 8 -58 -13 0 55 -106 70 -108 11 -2
16 0 12 6 -4 6 3 27 14 46 11 20 20 37 20 39 5 25 14 47 22 47 5 0 7 4 4 8 -9
15 88 108 135 130 80 37 95 41 184 46 33 1 65 0 70 -3 6 -4 24 -8 40 -10 37
-4 125 -40 125 -52 0 -5 5 -9 10 -9 29 0 135 -169 139 -220 0 -8 3 -46 7 -83
10 -114 -45 -294 -107 -348 -11 -9 -19 -19 -19 -23 0 -11 -59 -59 -109 -87
-75 -43 -86 -44 -118 -11 -15 16 -48 42 -73 58 -25 16 -48 33 -52 39 -4 5 -8
7 -8 3 0 -4 -26 6 -57 21 -32 15 -78 33 -103 40 -25 8 -52 16 -60 19 -8 3 -22
6 -30 7 -8 0 -24 4 -35 7 -11 4 -40 9 -65 12 -25 3 -56 8 -70 11 -137 27 -658
27 -886 0 -22 -2 -64 -7 -94 -10 -30 -3 -68 -7 -85 -9 -16 -3 -52 -7 -80 -11
-27 -3 -75 -9 -105 -13 -85 -11 -220 0 -220 18 0 4 -12 13 -27 18 -16 6 -45
26 -65 44 -41 36 -108 126 -108 144 0 6 -7 17 -15 24 -9 7 -14 15 -11 17 2 2
-4 21 -14 41 -10 20 -16 48 -13 62 14 65 4 167 -32 361 -9 47 -55 223 -64 244
-38 88 -93 194 -111 213 -11 12 -19 22 -16 22 3 0 -6 11 -20 25 -13 13 -27 24
-29 22 -3 -1 -11 7 -19 19 -26 37 -252 114 -356 121 -36 2 -73 5 -82 7 -9 2
-18 3 -20 1z"/>
</g>
</svg>
